:version 1.10
:name ASF
:units
  mass 1
  length 1
  angle deg
:documentation
  ASF file generated by Kaydara
:root
  axis xyz
  order  tx ty tz rx ry rz
  position 0 0 0
  orientation 0 0 0
:bonedata
  begin
    id 1
    name RightUpLegDummy
    direction -0.65628 -0.754516 0.00165102
    length 4.76918
    axis 0 0 0 xyz
  end
  begin
    id 2
    name RightUpLeg
    direction -0.145584 -0.923362 0.355256
    length 17.9961
    axis -24.7611 -13.1006 1.78531 xyz
    dof rx ry rz
  end
  begin
    id 3
    name RightLeg
    direction 0.263379 0.172355 -0.949171
    length 13.3386
    axis 89.6202 -21.1929 12.3855 xyz
    dof rx ry rz
  end
  begin
    id 4
    name RightFoot
    direction 0.224283 -0.968777 -0.105675
    length 5.86697
    axis 56.995 -39.6905 17.3365 xyz
    dof rx ry rz
  end
  begin
    id 5
    name RightToes
    direction -0.0806345 -0.9037 0.420506
    length 4.75197
    axis 146.825 -39.7828 17.6019 xyz
    dof rx ry rz
  end
  begin
    id 6
    name SpineDummy
    direction -3.39852e-014 1 9.33296e-014
    length 8.13779
    axis 0 0 0 xyz
  end
  begin
    id 7
    name Spine
    direction -0.156609 0.733703 0.661176
    length 7.14978
    axis 41.2365 5.68757 17.0844 xyz
    dof rx ry rz
  end
  begin
    id 8
    name Spine1
    direction 0 0 0
    length 0
    axis 42.8809 47.8308 -3.36039 xyz
    dof rx ry rz
  end
  begin
    id 9
    name HEadDummy
    direction 0.546431 0.701947 0.456819
    length 3.55512
    axis 42.8809 47.8308 -3.36039 xyz
  end
  begin
    id 10
    name HEad
    direction 0.23444 0.828559 0.508457
    length 7.35827
    axis 51.1864 49.2662 27.4903 xyz
    dof rx ry rz
  end
  begin
    id 11
    name LeftShoulder1Dummy
    direction 0.431183 0.475873 -0.766568
    length 2.49352
    axis 42.8809 47.8308 -3.36039 xyz
  end
  begin
    id 12
    name LeftShoulder1
    direction 0.268187 -0.383402 -0.883786
    length 4.48604
    axis -119.517 0.106469 35.1736 xyz
    dof rx ry rz
  end
  begin
    id 13
    name LeftArm
    direction 0.380567 -0.703221 -0.600541
    length 10.1142
    axis -5.41825 36.2925 7.8293 xyz
    dof rx ry rz
  end
  begin
    id 14
    name LeftForeArm
    direction 0.541071 -0.732356 -0.413396
    length 9.39839
    axis 4.65387 33.7604 7.81644 xyz
    dof rx ry rz
  end
  begin
    id 15
    name LeftHand
    direction 0.847511 -0.389379 -0.360707
    length 3.66142
    axis 7.65593 21.1436 -24.6758 xyz
    dof rx ry rz
  end
  begin
    id 16
    name RightShoulderDummy
    direction -0.692546 0.541855 0.476208
    length 2.49352
    axis 42.8809 47.8308 -3.36039 xyz
  end
  begin
    id 17
    name RightShoulder
    direction -0.870808 -0.316653 0.376065
    length 4.48602
    axis 141.571 51.133 -100.254 xyz
    dof rx ry rz
  end
  begin
    id 18
    name RightArm
    direction 0.366897 -0.87275 0.322015
    length 10.1142
    axis 92.3258 71.2036 138.917 xyz
    dof rx ry rz
  end
  begin
    id 19
    name RightForeArm
    direction 0.702487 -0.694568 0.155197
    length 9.39835
    axis 153.863 41.5092 -176.604 xyz
    dof rx ry rz
  end
  begin
    id 20
    name RightHand
    direction 0.79502 -0.601276 0.0800636
    length 3.66142
    axis 154.247 4.59222 142.9 xyz
    dof rx ry rz
  end
  begin
    id 21
    name LeftUpLegDummy
    direction 0.65628 -0.754516 0.00165102
    length 4.76919
    axis 0 0 0 xyz
  end
  begin
    id 22
    name LeftUpLeg
    direction -0.1277 -0.689368 0.713067
    length 17.9961
    axis -48.3385 -17.8675 0.791927 xyz
    dof rx ry rz
  end
  begin
    id 23
    name LeftLeg
    direction 0.109849 -0.991246 -0.0732378
    length 13.3386
    axis -2.05791 -7.30784 1.72042 xyz
    dof rx ry rz
  end
  begin
    id 24
    name LeftFoot
    direction 0.0448355 -0.272614 0.961078
    length 5.86697
    axis -18.7733 -7.89606 10.2113 xyz
    dof rx ry rz
  end
  begin
    id 25
    name LeftToes
    direction -0.18506 0.293668 0.937823
    length 4.75197
    axis 71.2267 -7.89606 10.2113 xyz
    dof rx ry rz
  end
:hierarchy
  begin
    root RightUpLegDummy SpineDummy LeftUpLegDummy
    RightUpLegDummy RightUpLeg
    RightUpLeg RightLeg
    RightLeg RightFoot
    RightFoot RightToes
    SpineDummy Spine
    Spine Spine1
    Spine1 HEadDummy LeftShoulder1Dummy RightShoulderDummy
    HEadDummy HEad
    LeftShoulder1Dummy LeftShoulder1
    LeftShoulder1 LeftArm
    LeftArm LeftForeArm
    LeftForeArm LeftHand
    RightShoulderDummy RightShoulder
    RightShoulder RightArm
    RightArm RightForeArm
    RightForeArm RightHand
    LeftUpLegDummy LeftUpLeg
    LeftUpLeg LeftLeg
    LeftLeg LeftFoot
    LeftFoot LeftToes
  end

:SAMPLES-PER-SECOND 30
:FULLY-SPECIFIED
:DEGREES
445
root  -4.13774 38.7741 69.7031 25.7466 79.9625 28.1414
RightUpLeg  6.6335 33.0778 13.6841
RightLeg  -77.7362 -15.6396 5.81036
RightFoot  9.20207 4.86332 -13.7871
RightToes  -1.27222e-014 -6.36111e-015 6.36111e-015
Spine  -29.2114 -16.653 -3.30668
Spine1  6.76177 -17.7749 55.4168
HEad  -2.19237 18.5806 -25.6363
LeftShoulder1  6.36111e-015 -1.33558e-015 6.49777e-015
LeftArm  18.1287 -2.52222 -37.7627
LeftForeArm  -18.5493 -35.5829 6.56651
LeftHand  -0.340102 0.671525 -6.73125
RightShoulder  -4.77083e-015 -6.36111e-015 -3.18055e-015
RightArm  69.1005 -24.0121 -38.4076
RightForeArm  -37.572 8.35409 -26.1051
RightHand  -0.326253 2.19443 -0.452478
LeftUpLeg  23.4569 11.8566 12.0492
LeftLeg  26.8326 6.55866 7.58149
LeftFoot  -3.26869 1.78519 -6.62885
LeftToes  9.54166e-015 4.2066e-011 -8.07781e-011
446
root  -4.25353 38.2121 70.0373 79.7626 85.8193 84.015
RightUpLeg  8.06173 30.528 14.9271
RightLeg  -75.0019 -17.3322 8.16432
RightFoot  10.7116 5.95197 -16.1547
RightToes  -1.27222e-014 -6.36111e-015 6.36111e-015
Spine  -28.4892 -15.7277 -1.974
Spine1  8.16192 -17.7301 54.7919
HEad  -2.87751 17.7249 -25.6994
LeftShoulder1  6.36111e-015 -1.33558e-015 6.49777e-015
LeftArm  23.8375 -5.73303 -40.4794
LeftForeArm  -14.8702 -35.482 5.48935
LeftHand  -0.128225 1.47895 -7.25598
RightShoulder  -4.77083e-015 -6.36111e-015 -3.18055e-015
RightArm  65.766 -24.5363 -31.4333
RightForeArm  -42.1689 10.7767 -30.6654
RightHand  -0.136452 1.53502 -1.07782
LeftUpLeg  19.3588 14.8874 8.98166
LeftLeg  40.1547 4.33075 9.87414
LeftFoot  -5.53071 1.39172 -5.55564
LeftToes  9.54166e-015 4.2066e-011 -8.07781e-011
447
root  -4.24042 37.7307 70.3882 153.223 81.7186 158.78
RightUpLeg  6.51893 22.3512 11.9853
RightLeg  -72.9188 -19.1577 10.5113
RightFoot  11.2254 6.20604 -16.7149
RightToes  -1.27222e-014 -6.36111e-015 6.36111e-015
Spine  -29.6972 -14.011 -0.0995683
Spine1  10.3012 -17.3633 53.958
HEad  -3.84539 16.8477 -26.2424
LeftShoulder1  6.36111e-015 -1.33558e-015 6.49777e-015
LeftArm  29.3968 -9.34417 -43.0233
LeftForeArm  -11.37 -32.491 3.35235
LeftHand  -0.145093 1.86959 -8.69189
RightShoulder  -4.77083e-015 -6.36111e-015 -3.18055e-015
RightArm  61.7435 -23.8652 -26.6435
RightForeArm  -48.5679 12.4958 -36.0964
RightHand  -0.167128 1.66876 -1.02445
LeftUpLeg  16.9679 19.5521 7.99706
LeftLeg  49.7889 4.45871 14.018
LeftFoot  -8.80877 1.30673 -5.88727
LeftToes  9.54166e-015 4.2066e-011 -8.07781e-011
448
root  -4.06544 37.5891 70.7673 168.063 74.8702 174.242
RightUpLeg  6.13867 15.3916 9.90309
RightLeg  -72.3035 -19.5134 10.7794
RightFoot  10.7057 5.59198 -15.4813
RightToes  -1.27222e-014 -6.36111e-015 6.36111e-015
Spine  -31.7137 -12.1033 0.849982
Spine1  11.579 -16.4701 53.3557
HEad  -3.65588 15.658 -26.2788
LeftShoulder1  6.36111e-015 -1.33558e-015 6.49777e-015
LeftArm  33.1757 -11.2842 -44.6109
LeftForeArm  -7.74941 -27.6934 1.06504
LeftHand  -0.0999039 2.66613 -10.5739
RightShoulder  -4.77083e-015 -6.36111e-015 -3.18055e-015
RightArm  57.2826 -22.3945 -22.7367
RightForeArm  -53.8935 13.1222 -40.2145
RightHand  -0.459571 2.73603 -0.102605
LeftUpLeg  16.0952 24.0055 8.93117
LeftLeg  54.0882 4.36595 16.3153
LeftFoot  -10.1617 1.42656 -6.81799
LeftToes  9.54166e-015 4.2066e-011 -8.07781e-011
449
root  -3.73075 37.862 71.1097 172 67.8716 178.259
RightUpLeg  7.66242 11.4772 9.1185
RightLeg  -74.8965 -19.291 11.9879
RightFoot  11.2784 4.68606 -13.9227
RightToes  -1.27222e-014 -6.36111e-015 6.36111e-015
Spine  -32.9652 -10.8278 0.419943
Spine1  10.0648 -15.1757 53.0577
HEad  -1.53594 13.4031 -24.849
LeftShoulder1  6.36111e-015 -1.33558e-015 6.49777e-015
LeftArm  34.2481 -9.89827 -43.7206
LeftForeArm  -4.70795 -22.5522 -0.560226
LeftHand  0.366662 4.64107 -11.3928
RightShoulder  -4.77083e-015 -6.36111e-015 -3.18055e-015
RightArm  53.6 -20.9179 -19.1862
RightForeArm  -55.7881 13.7153 -42.6195
RightHand  -0.763046 3.83729 1.05829
LeftUpLeg  15.868 26.8132 10.2134
LeftLeg  52.2947 3.98121 14.5776
LeftFoot  -8.23448 1.46667 -6.48485
LeftToes  9.54166e-015 4.2066e-011 -8.07781e-011
450
root  -3.30689 38.42 71.323 172.581 60.7655 178.466
RightUpLeg  10.039 8.98051 7.84526
RightLeg  -79.6902 -18.6387 14.2525
RightFoot  13.4097 3.75669 -12.7492
RightToes  -1.27222e-014 -6.36111e-015 6.36111e-015
Spine  -33.4363 -10.0861 -0.509018
Spine1  6.68186 -13.7913 52.083
HEad  1.45447 9.90179 -22.5837
LeftShoulder1  6.36111e-015 -1.33558e-015 6.49777e-015
LeftArm  31.5074 -4.95113 -37.597
LeftForeArm  -1.9719 -19.7786 -2.50225
LeftHand  0.975841 6.3868 -10.5177
RightShoulder  -4.77083e-015 -6.36111e-015 -3.18055e-015
RightArm  50.908 -19.8783 -16.2568
RightForeArm  -54.0463 14.4628 -42.8517
RightHand  -0.897902 4.37793 1.56275
LeftUpLeg  16.169 27.9875 11.1302
LeftLeg  44.4598 4.14066 11.2047
LeftFoot  -6.46505 1.37136 -5.65883
LeftToes  9.54166e-015 4.2066e-011 -8.07781e-011
451
root  -2.89755 39.0697 71.391 173.065 54.3442 178.335
RightUpLeg  12.9106 8.03521 6.41737
RightLeg  -82.8092 -16.5333 11.6645
RightFoot  15.4022 2.81882 -11.6391
RightToes  -1.27222e-014 -6.36111e-015 6.36111e-015
Spine  -34.367 -8.84994 -0.893878
Spine1  4.45723 -12.4442 49.7225
HEad  3.72405 5.73357 -20.9839
LeftShoulder1  6.36111e-015 -1.33558e-015 6.49777e-015
LeftArm  28.1999 -0.149099 -29.1732
LeftForeArm  -1.67286 -17.3155 -3.76964
LeftHand  1.0569 6.21148 -9.56672
RightShoulder  -4.77083e-015 -6.36111e-015 -3.18055e-015
RightArm  48.5465 -18.468 -14.1626
RightForeArm  -49.8871 14.44 -39.956
RightHand  -0.814422 4.21428 0.93629
LeftUpLeg  17.4516 27.9707 12.6648
LeftLeg  30.9582 4.97938 7.62778
LeftFoot  -5.97787 1.21626 -4.91328
LeftToes  9.54166e-015 4.2066e-011 -8.07781e-011
452
root  -2.55006 39.6526 71.4119 174.036 49.0382 178.779
RightUpLeg  17.0258 11.4957 7.22019
RightLeg  -83.7362 -13.3981 2.1971
RightFoot  16.1463 1.7072 -9.99959
RightToes  -1.27222e-014 -6.36111e-015 6.36111e-015
Spine  -35.9094 -7.326 -1.34376
Spine1  4.25292 -11.1423 46.8743
HEad  5.1135 1.71435 -20.5949
LeftShoulder1  6.36111e-015 -1.33558e-015 6.49777e-015
LeftArm  27.2211 1.18274 -23.1774
LeftForeArm  -5.39377 -12.8751 -3.13262
LeftHand  0.589389 4.7667 -9.88322
RightShoulder  -4.77083e-015 -6.36111e-015 -3.18055e-015
RightArm  46.8845 -15.9169 -12.8283
RightForeArm  -44.7602 12.8518 -34.5762
RightHand  -0.599866 3.74924 -0.497547
LeftUpLeg  19.8955 27.39 15.3253
LeftLeg  12.6515 5.56311 3.36311
LeftFoot  -3.1785 1.01912 -3.72773
LeftToes  9.54166e-015 4.2066e-011 -8.07781e-011
453
root  -2.21227 39.946 71.4902 175.02 43.8911 179.609
RightUpLeg  22.9036 18.6569 11.4374
RightLeg  -85.2563 -10.9343 -8.21573
RightFoot  14.9548 1.36969 -9.08675
RightToes  -1.27222e-014 -6.36111e-015 6.36111e-015
Spine  -36.6297 -7.00232 -2.8261
Spine1  3.72339 -10.2694 45.2793
HEad  6.4017 -1.2557 -20.7859
LeftShoulder1  6.36111e-015 -1.33558e-015 6.49777e-015
LeftArm  28.2684 0.780877 -18.6767
LeftForeArm  -9.96978 -10.4557 -2.07802
LeftHand  0.0321034 3.10285 -10.5142
RightShoulder  -4.77083e-015 -6.36111e-015 -3.18055e-015
RightArm  46.5388 -12.4712 -11.537
RightForeArm  -39.4312 9.69415 -28.25
RightHand  -0.530985 3.89955 -1.51164
LeftUpLeg  22.8841 26.6254 18.235
LeftLeg  -7.24763 4.07735 -1.12534
LeftFoot  3.39769 0.599904 -1.81189
LeftToes  9.54166e-015 4.2066e-011 -8.07781e-011
454
root  -1.82507 39.8124 71.5958 176.044 37.8727 -178.67
RightUpLeg  28.9065 22.4313 16.8887
RightLeg  -88.0231 -10.493 -12.2932
RightFoot  12.3119 2.21668 -9.73934
RightToes  -1.27222e-014 -6.36111e-015 6.36111e-015
Spine  -35.9586 -7.74009 -4.27409
Spine1  1.60922 -10.1174 45.5688
HEad  7.28333 -2.42954 -20.9248
LeftShoulder1  6.36111e-015 -1.33558e-015 6.49777e-015
LeftArm  30.1817 0.167007 -13.2111
LeftForeArm  -12.526 -13.6111 -1.43847
LeftHand  -0.358401 1.71426 -10.4145
RightShoulder  -4.77083e-015 -6.36111e-015 -3.18055e-015
RightArm  46.9265 -8.22122 -9.35161
RightForeArm  -33.8514 5.39991 -22.0343
RightHand  -0.764463 5.01317 -1.23998
LeftUpLeg  24.7628 25.0061 20.7624
LeftLeg  -22.8954 -0.5419 -3.27533
LeftFoot  10.6627 0.0407427 -0.155435
LeftToes  9.54166e-015 4.2066e-011 -8.07781e-011
455
root  -1.42246 39.4299 71.6459 176.903 31.2075 -176.054
RightUpLeg  32.1859 19.0703 19.9209
RightLeg  -91.3043 -11.1153 -9.64587
RightFoot  10.2931 3.50912 -11.5037
RightToes  -1.27222e-014 -6.36111e-015 6.36111e-015
Spine  -34.9958 -8.07071 -4.24616
Spine1  -0.0492042 -10.3554 46.5557
HEad  5.54847 -3.80425 -19.668
LeftShoulder1  6.36111e-015 -1.33558e-015 6.49777e-015
LeftArm  31.4466 -1.76681 -8.09681
LeftForeArm  -13.1893 -19.6654 -0.158106
LeftHand  -0.351966 1.40172 -9.37495
RightShoulder  -4.77083e-015 -6.36111e-015 -3.18055e-015
RightArm  47.7131 -3.37318 -6.83009
RightForeArm  -28.2039 1.15245 -17.0662
RightHand  -1.02337 6.0906 -0.474769
LeftUpLeg  23.8528 16.0301 19.4803
LeftLeg  -30.4415 -0.672968 -6.83075
LeftFoot  15.5668 -0.257392 0.481723
LeftToes  9.54166e-015 4.2066e-011 -8.07781e-011
456
root  -1.06706 38.954 71.5563 177.053 24.6573 -173.884
RightUpLeg  32.7769 12.8322 20.7508
RightLeg  -92.9509 -11.6147 -3.90943
RightFoot  8.59862 5.50363 -14.8932
RightToes  -1.27222e-014 -6.36111e-015 6.36111e-015
Spine  -34.6497 -7.42909 -3.21435
Spine1  0.73056 -10.4132 46.8224
HEad  3.09693 -3.72563 -19.9411
LeftShoulder1  6.36111e-015 -1.33558e-015 6.49777e-015
LeftArm  28.8897 -3.43824 -4.46079
LeftForeArm  -11.2573 -25.9023 1.252
LeftHand  0.215375 2.67863 -7.62287
RightShoulder  -4.77083e-015 -6.36111e-015 -3.18055e-015
RightArm  49.4984 -0.0989563 -6.09223
RightForeArm  -23.3206 -1.53181 -14.0682
RightHand  -0.959382 5.67514 -0.334689
LeftUpLeg  21.7669 13.6082 20.5429
LeftLeg  -29.8994 -2.81711 -4.47583
LeftFoot  17.8303 -0.607181 1.17581
LeftToes  9.54166e-015 4.2066e-011 -8.07781e-011
457
root  -0.793779 38.5084 71.2287 176.148 18.4728 -174.005
RightUpLeg  32.4178 9.88636 21.2088
RightLeg  -91.2676 -12.3212 2.31178
RightFoot  6.15621 7.01531 -17.4823
RightToes  -1.27222e-014 -6.36111e-015 6.36111e-015
Spine  -34.1863 -7.04929 -3.23519
Spine1  2.68309 -10.0469 46.2141
HEad  1.51723 -3.93625 -20.898
LeftShoulder1  6.36111e-015 -1.33558e-015 6.49777e-015
LeftArm  23.2965 -2.43297 -3.47805
LeftForeArm  -8.11458 -30.4299 1.87599
LeftHand  1.09576 4.78128 -5.90593
RightShoulder  -4.77083e-015 -6.36111e-015 -3.18055e-015
RightArm  52.2575 -1.09386 -7.85963
RightForeArm  -19.9711 -3.06504 -12.3595
RightHand  -0.627749 3.976 -0.634554
LeftUpLeg  19.6844 13.4912 19.6644
LeftLeg  -24.5367 -1.81454 -3.1718
LeftFoot  18.8414 -1.01571 1.98306
LeftToes  9.54166e-015 4.2066e-011 -8.07781e-011
